# xmcd
#
# Track frame offsets:
# 183
# 13110
# 26940
# 44815
# 57910
# 71243
# 84428
# 94690
# 109408
# 120800
# 132783
# 148335
# 161913
# 173955
# 190565
# 204085
# 227353
# 241350
#
# Disc length: 3467 seconds
#
# Revision: 1
# Processed by: cddbd v1.4PL0 Copyright (c) Steve Scherf et al.
# Submitted via: CedeCatalogueitor 2.5 http://usuarios.lycos.es/kakasboy
#
DISCID=fa0d8912
DTITLE=Various Artist - El Pop Español
DYEAR=1991
DGENRE=
TTITLE0=Magdalena Castro Con El Trío Guadalajara - La Yedra
TTITLE1=Monna Bell - Un Telegrama
TTITLE2=Monna Bell - Nubes De Colores
TTITLE3=Dúo Dinámico - Quisiera Ser
TTITLE4=Elder Barber - Ola, Ola, Ola "Mare Nostrum"
TTITLE5=Kuldip - Ojos De España
TTITLE6=Gelu - El Partido De Fútbol
TTITLE7=Bruno Lomas - La Casa Del Sol Naciente
TTITLE8=Karina - Oh, Oh Sheriff
TTITLE9=Karina - Las Flechas Del Amor
TTITLE10=Pic Nic - Negra Estrella
TTITLE11=Los Pasos - Nací De Pie
TTITLE12=Rachel - Falsedad
TTITLE13=Los Pekenikes - El Tiempo Vuela
TTITLE14=Mari Trini - Escúchame
TTITLE15=Los Módulos - Todo Tiene Su Fin
TTITLE16=Merche Macaria - Verano Indio
TTITLE17=Victoria Abril - Cuando Tu Me Besas
EXTD=
EXTT0=
EXTT1=
EXTT2=
EXTT3=
EXTT4=
EXTT5=
EXTT6=
EXTT7=
EXTT8=
EXTT9=
EXTT10=
EXTT11=
EXTT12=
EXTT13=
EXTT14=
EXTT15=
EXTT16=
EXTT17=
PLAYORDER=
